<svg width="11" height="14" viewBox="0 0 11 14" fill="none" xmlns="http://www.w3.org/2000/svg">
<path d="M1.10117 5.85137C0.493009 5.85137 0 6.34438 0 6.95254V9.15487C0 11.8308 2.16924 14 4.84513 14H5.72606C8.40195 14 10.5712 11.8308 10.5712 9.15487V6.95254C10.5712 6.34438 10.0782 5.85137 9.47003 5.85137H1.10117Z" fill="white"/>
<path d="M0.886343 4.18444C1.00109 1.85412 2.92682 5.05282e-06 5.2856 5.05282e-06C7.71822 5.05282e-06 9.69026 1.97204 9.69026 4.40467V4.57088C9.69026 4.72235 9.56747 4.84513 9.41601 4.84513H7.81828C7.63583 4.84513 7.48793 4.69723 7.48793 4.51479C7.48793 3.35929 6.55121 2.42257 5.39571 2.42257C4.24021 2.42257 3.3035 3.35929 3.3035 4.51479V6.607H0.880933V4.18444H0.886343Z" fill="white"/>
</svg>
