<svg width="10" height="13" viewBox="0 0 10 13" fill="none" xmlns="http://www.w3.org/2000/svg">
<path d="M1.03175 5.36508C0.461928 5.36508 0 5.82701 0 6.39683V8.46032C0 10.9675 2.03249 13 4.53968 13H5.36508C7.87228 13 9.90476 10.9675 9.90476 8.46032V6.39683C9.90476 5.82701 9.44283 5.36508 8.87302 5.36508H1.03175Z" fill="white"/>
<path d="M0.830466 3.92063C0.93798 1.73723 2.7423 0 4.95238 0C7.16246 0 8.96678 1.73723 9.0743 3.92063H9.07936V6.19048H6.80952V4.23016C6.80952 3.14751 6.13821 2.26984 5.05556 2.26984C3.9729 2.26984 3.09524 3.14751 3.09524 4.23016V6.19048H0.825397V3.92063H0.830466Z" fill="white"/>
</svg>
